<mxfile host="app.diagrams.net" modified="2023-04-26T12:16:56.498Z" agent="Mozilla/5.0 (Windows NT 10.0; Win64; x64) AppleWebKit/537.36 (KHTML, like Gecko) Chrome/112.0.0.0 Safari/537.36" etag="Ys3R1HxfUyZEcoLENPGI" version="21.1.7" type="onedrive">
  <diagram name="Page-1" id="bC2gnG4DiGqVNCLY0rfi">
    <mxGraphModel grid="1" page="1" gridSize="10" guides="1" tooltips="1" connect="1" arrows="1" fold="1" pageScale="1" pageWidth="1654" pageHeight="1169" math="0" shadow="0">
      <root>
        <mxCell id="0" />
        <mxCell id="1" parent="0" />
        <mxCell id="vjHuk9BXF6nxpI5VjyQP-1" value="" style="rounded=0;whiteSpace=wrap;html=1;" vertex="1" parent="1">
          <mxGeometry x="180" y="90" width="430" height="230" as="geometry" />
        </mxCell>
        <mxCell id="vjHuk9BXF6nxpI5VjyQP-2" value="Home page" style="text;html=1;align=center;verticalAlign=middle;resizable=0;points=[];autosize=1;strokeColor=none;fillColor=none;" vertex="1" parent="1">
          <mxGeometry x="180" y="60" width="90" height="30" as="geometry" />
        </mxCell>
      </root>
    </mxGraphModel>
  </diagram>
</mxfile>
